<svg xmlns="http://www.w3.org/2000/svg" viewBox="0 0 159.98 216.04">
  <defs>
    <style>
      .cls-1 {
        fill: #5710ca;
      }

      .cls-2 {
        fill: #f9e9fe;
      }
    </style>
  </defs>
  <title>8010679</title>
  <g id="OBJECTS">
    <g>
      <path class="cls-1" d="M240.25,272.25c15.32-.24,30.65.4,46,.15,7.36-.12,16.42,0,22.66-4.59,5.78-4.22,6.78-11.68,6.81-18.36.05-11.48,1-23.94-2.37-35-2.37-7.79-7.61-14.52-16-15.48-9.38-1.07-19.26.23-28.67.41-15.26.28-30.61-.5-45.85.73-10.35.84-25.14,1.89-30.55,12.36-6.5,12.58-4.82,30.11-3.22,43.67.69,5.85,2.08,12.32,7.49,15.64,5.63,3.46,12.92,2.09,19,.76l-3.08-1.74c3.71,9.48,1.74,19.18-7.5,24.4a2.53,2.53,0,0,0,.6,4.57c17.75,4.19,32.61-14.13,37.16-29.32.93-3.09-3.9-4.41-4.82-1.33-3.71,12.39-16.15,29.34-31,25.83l.6,4.57c11.06-6.25,14.31-18.51,9.8-30.05a2.58,2.58,0,0,0-3.07-1.75c-4.81,1.05-11.66,2.68-15.89-.82s-4.28-10.3-4.71-15.28c-1-11.37-2.22-25.56,2.79-36.19,4.63-9.83,20.5-10,29.73-10.55,12.92-.79,25.9-.27,38.84-.44,9.65-.13,19.36-.91,29-.68,6.78.16,11.21,3.18,13.85,9.88,4,10,2.59,21.18,2.82,31.66.13,5.66.85,13.31-3.63,17.67-5.19,5-15.12,4.4-21.72,4.48-15,.18-30-.39-45-.16C237,267.3,237,272.3,240.25,272.25Z" transform="translate(-170.56 -156.4)"/>
      <path class="cls-1" d="M216.47,281.36c-9.83-.26-20.17,1.23-29.8-1.32-8.65-2.29-9.26-11-10-18.76a199.65,199.65,0,0,1-.24-31c.46-7.91.46-17.18,3.47-24.64,4.2-10.4,17.88-10.26,27.25-10.89q18.24-1.23,36.49-2c6.66-.28,13.34-.43,20-1,3.3-.27,6.92-.47,9.95-1.94a11.67,11.67,0,0,0,5.22-5.42c5.69-10.88-4.1-19.73-12.81-24.88v4.32c6.47-4.18,16.36-2.3,23,.37a27.31,27.31,0,0,1,11,7.62c4.16,5.07,4.37,11.23,4.3,17.52a2.53,2.53,0,0,0,1.84,2.41c3.69.77,8.25.7,11.54,2.32,4.36,2.13,5.44,7.89,6.2,12.28,2.25,13.09,1.61,26.88,1.29,40.09-.19,7.84.66,16.92-1.84,24.48-2.05,6.2-7.54,8-13.54,8.9-12.19,1.75-24.87,1.83-37.16,2.08-13.16.27-26.32,0-39.47-.61-3.22-.16-3.21,4.84,0,5,25,1.23,50.75,1.58,75.69-1.33,6-.71,12.56-2.11,16.48-7.14s4.16-11.88,4.41-17.93c.68-16.84,1.6-34.15-.47-50.94-.76-6.13-1.85-13.73-7-17.87-4.15-3.32-9.83-3.12-14.79-4.15l1.83,2.41c.07-6.86-.32-13.56-4.42-19.32a30.55,30.55,0,0,0-12.95-10c-8.29-3.59-20.38-5.76-28.49-.53a2.53,2.53,0,0,0,0,4.32c6.9,4.07,16.09,12,9.87,20-1.09,1.38-2.83,2-5.15,2.4-4.86.9-10,.88-14.88,1.09-10,.43-20,.84-30,1.4-12.06.68-26.18-.24-37.51,4.55-7,3-10.61,8.67-12.08,15.94a173,173,0,0,0-1.53,56.56c1.12,7.89,2.92,15.53,11.12,18.47,10.45,3.74,22.33,1.83,33.17,2.12,3.22.08,3.22-4.92,0-5Z" transform="translate(-170.56 -156.4)"/>
    </g>
    <g>
      <g>
        <path class="cls-2" d="M218,235.49c1.62,2.13,4,3.55,6.71,2.76a7,7,0,0,0,4.59-4.78c1.57-5.73-5.88-11.12-10.39-6.61a7,7,0,0,0-.91,8.63,2.5,2.5,0,0,0,4.32-2.53,1.53,1.53,0,0,1-.41-.87c.08.38,0-.89,0-.48a3.13,3.13,0,0,1,.21-.74c-.1.24,0,0,.07-.1s.4-.54.23-.37c0,0,.67-.37.25-.18.2-.09.3,0,0-.05a1.7,1.7,0,0,1,.6.07,2.12,2.12,0,0,1,.88.64c.51.54-.19-.31.2.27.25.37,0-.11.07.12a5.11,5.11,0,0,1,.13.53c-.06-.39,0-.13,0,.07-.12.36.17-.58,0,.07a4.74,4.74,0,0,1-.15.5c-.11.34.27-.48,0,.07,0,.06-.34.54-.15.27s-.63.6-.42.44-.24.14-.25.14c-.4.24.23,0,0,0a4.27,4.27,0,0,1-.48.13c.48-.09.07.06,0-.05s.36.18,0,0,.17.1-.11-.05a1.18,1.18,0,0,1-.51-.43,2.58,2.58,0,0,0-3.42-.89A2.52,2.52,0,0,0,218,235.49Z" transform="translate(-170.56 -156.4)"/>
        <path class="cls-2" d="M281.69,237.41c3.3.94,6.58-.49,7.47-3.94a7.49,7.49,0,0,0-2.7-7.85,6.23,6.23,0,0,0-8.87,2.28,7,7,0,0,0,4.1,9.51c3,1.08,4.35-3.75,1.33-4.82a1.88,1.88,0,0,1-.9-2.55,1.38,1.38,0,0,1,1.11-.45c-.29,0,.57.11.16,0,0,0,.52.33.29.15s.21.22.22.24c-.28-.4.22.37.28.5.17.34-.12-.35,0,0,.06.18.11.36.16.54s.05.26,0,0a5.12,5.12,0,0,1,0,.56,3.38,3.38,0,0,1,0,.55c0-.23,0-.28,0,0,0,0-.17.63-.07.3s-.11.2-.15.25c.32-.34-.35.19,0,0s-.39.09-.09.05c-.52.07-.42,0-1-.15C279.92,231.71,278.6,236.54,281.69,237.41Z" transform="translate(-170.56 -156.4)"/>
      </g>
      <path class="cls-2" d="M236.87,236.7c4.08,15.5,30.21,13.94,32-2.13.36-3.19-4.64-3.16-5,0-1.21,10.63-19.67,10.5-22.22.8-.82-3.11-5.64-1.79-4.82,1.33Z" transform="translate(-170.56 -156.4)"/>
    </g>
  </g>
  <g id="TEXTS">
    <text x="-170.56" y="-156.4"/>  </g>
</svg>
